<svg width="25" height="25" viewBox="0 0 25 25" fill="none" xmlns="http://www.w3.org/2000/svg">
<path d="M13.5417 15.3385C13.5417 9.98333 17.5958 4.38125 23.9583 3.125L24.9833 5.33958C22.676 6.20937 20.6469 9.2375 20.4208 11.325C23.0156 11.7333 25 13.9781 25 16.6885C25 20.0031 22.3083 21.875 19.5844 21.875C16.4438 21.875 13.5417 19.474 13.5417 15.3385ZM0 15.3385C0 9.98333 4.05417 4.38125 10.4167 3.125L11.4417 5.33958C9.13437 6.20937 7.10521 9.2375 6.87917 11.325C9.47396 11.7333 11.4583 13.9781 11.4583 16.6885C11.4583 20.0031 8.76667 21.875 6.04271 21.875C2.90208 21.875 0 19.474 0 15.3385Z" fill="#324ADE"/>
</svg>
